<svg xmlns="http://www.w3.org/2000/svg" width="1024" height="1024" viewBox="0 0 1024 1024">
  <defs>
    <linearGradient id="background" x1="0" y1="0" x2="1" y2="1">
      <stop offset="0" stop-color="#F4F7F9"/>
      <stop offset="1" stop-color="#DDE8EF"/>
    </linearGradient>
    <linearGradient id="potato" x1="0.2" y1="0" x2="0.8" y2="1">
      <stop offset="0" stop-color="#314B5D"/>
      <stop offset="1" stop-color="#182C38"/>
    </linearGradient>
    <filter id="shadow" x="-20%" y="-20%" width="140%" height="150%">
      <feDropShadow dx="0" dy="28" stdDeviation="28" flood-color="#263D4C" flood-opacity=".24"/>
    </filter>
  </defs>
  <rect width="1024" height="1024" rx="228" fill="url(#background)"/>
  <path d="M516 184c174-17 302 77 306 238 5 206-136 389-334 393-175 3-286-109-278-273 8-165 127-337 306-358Z" fill="url(#potato)" filter="url(#shadow)"/>
  <path d="M338 284c55-66 117-92 190-103-18 71-66 122-137 153Z" fill="#AA6A5A"/>
  <path d="M480 342h80v217l84-84 58 58-182 182-182-182 58-58 84 84Z" fill="#F6F9FA"/>
  <path d="M330 754c78 68 205 91 313 38" fill="none" stroke="#7394A7" stroke-width="18" stroke-linecap="round" opacity=".5"/>
</svg>
